<?xml version="1.0" encoding="iso-8859-1"?>
<!-- Uploaded to: SVG Repo, www.svgrepo.com, Generator: SVG Repo Mixer Tools -->
<svg height="800px" width="800px" version="1.1" id="Layer_1" xmlns="http://www.w3.org/2000/svg" xmlns:xlink="http://www.w3.org/1999/xlink" 
	 viewBox="0 0 512 512" xml:space="preserve">
<g transform="translate(1 1)">
	<polygon style="fill:#D0E8F9;" points="7.533,357.4 127,357.4 127,476.867 7.533,476.867 	"/>
	<path style="fill:#0096E6;" d="M135.533,485.4H-1V348.867h136.533V485.4z M16.067,468.333h102.4v-102.4h-102.4V468.333z"/>
	<polygon style="fill:#D0E8F9;" points="383,357.4 502.467,357.4 502.467,476.867 383,476.867 	"/>
	<path style="fill:#0096E6;" d="M511,485.4H374.467V348.867H511V485.4z M391.533,468.333h102.4v-102.4h-102.4V468.333z"/>
	<polygon style="fill:#D0E8F9;" points="195.267,357.4 314.733,357.4 314.733,476.867 195.267,476.867 	"/>
	<path style="fill:#0096E6;" d="M323.267,485.4H186.733V348.867h136.533V485.4z M203.8,468.333h102.4v-102.4H203.8V468.333z"/>
	<path style="fill:#D0E8F9;" d="M255,152.6L255,152.6c-33.28,0-59.733-26.453-59.733-59.733S221.72,33.133,255,33.133
		s59.733,26.453,59.733,59.733S288.28,152.6,255,152.6L255,152.6z"/>
	<g>
		<path style="fill:#0096E6;" d="M255,161.133c-37.547,0-68.267-30.72-68.267-68.267S217.453,24.6,255,24.6
			s68.267,30.72,68.267,68.267S292.547,161.133,255,161.133z M255,41.667c-28.16,0-51.2,23.04-51.2,51.2s23.04,51.2,51.2,51.2
			s51.2-23.04,51.2-51.2S283.16,41.667,255,41.667z"/>
		<polygon style="fill:#0096E6;" points="451.267,357.4 434.2,357.4 434.2,263.533 263.533,263.533 263.533,357.4 246.467,357.4 
			246.467,263.533 75.8,263.533 75.8,357.4 58.733,357.4 58.733,246.467 246.467,246.467 246.467,152.6 263.533,152.6 
			263.533,246.467 451.267,246.467 		"/>
	</g>
</g>
</svg>